{"glyphs":{":":{"x_min":0,"x_max":171,"ha":171,"o":"m 49 98 l 122 98 l 122 0 l 49 0 z m 49 391 l 122 391 l 122 293 l 49 293 z"},"$":{"x_min":0,"x_max":574,"ha":574,"o":"m 324 293 l 324 146 l 397 146 q 419 146 436 168 q 452 189 452 220 q 452 250 436 271 q 419 293 397 293 z m 250 537 l 177 537 q 154 537 138 516 q 122 494 122 464 q 122 434 138 412 q 154 391 177 391 l 250 391 z m 250 293 l 177 293 q 124 293 86 343 q 49 393 49 464 q 49 535 86 585 q 124 635 177 635 l 250 635 l 250 684 l 324 684 l 324 635 l 525 635 l 525 537 l 324 537 l 324 391 l 397 391 q 450 391 487 341 q 525 291 525 220 q 525 149 487 99 q 450 49 397 49 l 324 49 l 324 0 l 250 0 l 250 49 l 49 49 l 49 146 l 250 146 z"},"?":{"x_min":0,"x_max":574,"ha":574,"o":"m 287 293 q 264 293 248 271 q 232 250 232 220 l 232 146 l 159 146 l 159 220 q 159 291 196 341 q 234 391 287 391 l 397 391 q 419 391 436 412 q 452 434 452 464 l 452 513 q 452 543 436 564 q 419 586 397 586 l 49 586 l 49 684 l 397 684 q 450 684 487 634 q 525 583 525 513 l 525 464 q 525 393 487 343 q 450 293 397 293 z m 159 98 l 232 98 l 232 0 l 159 0 z"},"<":{"x_min":0,"x_max":500,"ha":500,"o":"m 49 269 l 49 415 l 452 586 l 452 488 l 122 349 l 122 335 l 452 195 l 452 98 z"},"'":{"x_min":0,"x_max":171,"ha":171,"o":"m 85 586 l 49 586 l 49 684 l 122 684 l 122 562 q 122 542 111 527 q 101 513 85 513 l 70 513 l 49 562 l 67 562 q 85 562 85 586 z"},"=":{"x_min":0,"x_max":500,"ha":500,"o":"m 49 488 l 452 488 l 452 391 l 49 391 z m 49 293 l 452 293 l 452 195 l 49 195 z"},"a":{"x_min":0,"x_max":500,"ha":500,"o":"m 122 171 q 122 141 138 119 q 154 98 177 98 l 378 98 l 378 415 l 177 415 q 154 415 138 394 q 122 372 122 342 z m 452 0 l 177 0 q 124 0 86 50 q 49 100 49 171 l 49 342 q 49 413 86 463 q 124 513 177 513 l 452 513 z"},"L":{"x_min":0,"x_max":537,"ha":537,"o":"m 488 98 l 488 0 l 177 0 q 124 0 86 50 q 49 100 49 171 l 49 684 l 122 684 l 122 171 q 122 141 138 119 q 154 98 177 98 z"},"3":{"x_min":0,"x_max":574,"ha":574,"o":"m 159 293 l 159 391 l 397 391 q 419 391 436 412 q 452 434 452 464 l 452 513 q 452 543 436 564 q 419 586 397 586 l 49 586 l 49 684 l 397 684 q 450 684 487 634 q 525 583 525 513 l 525 464 q 525 393 488 341 q 525 291 525 220 l 525 171 q 525 100 487 50 q 450 0 397 0 l 49 0 l 49 98 l 397 98 q 419 98 436 119 q 452 141 452 171 l 452 220 q 452 250 436 271 q 419 293 397 293 z"},";":{"x_min":0,"x_max":171,"ha":171,"o":"m 49 391 l 122 391 l 122 293 l 49 293 z m 85 0 l 49 0 l 49 98 l 122 98 l 122 -24 q 122 -44 111 -59 q 101 -73 85 -73 l 70 -73 l 49 -24 l 67 -24 q 85 -24 85 0 z"},"J":{"x_min":0,"x_max":537,"ha":537,"o":"m 360 98 q 383 98 399 119 q 415 141 415 171 l 415 684 l 488 684 l 488 171 q 488 100 451 50 q 413 0 360 0 l 49 0 l 49 98 z"},"V":{"x_min":0,"x_max":562,"ha":562,"o":"m 226 0 l 24 684 l 98 684 l 270 98 l 291 98 l 464 684 l 537 684 l 335 0 z"},"\"":{"x_min":0,"x_max":281,"ha":281,"o":"m 85 586 l 49 586 l 49 684 l 122 684 l 122 562 q 122 542 111 527 q 101 513 85 513 l 70 513 l 49 562 l 67 562 q 85 562 85 586 z m 195 586 l 159 586 l 159 684 l 232 684 l 232 562 q 232 542 221 527 q 210 513 195 513 l 180 513 l 159 562 l 177 562 q 195 562 195 586 z"},"7":{"x_min":0,"x_max":586,"ha":586,"o":"m 488 684 l 269 0 l 186 0 l 375 586 l 49 586 l 49 684 z"},"S":{"x_min":0,"x_max":610,"ha":610,"o":"m 177 293 q 124 293 86 343 q 49 393 49 464 l 49 513 q 49 583 86 634 q 124 684 177 684 l 562 684 l 562 586 l 177 586 q 154 586 138 564 q 122 543 122 513 l 122 464 q 122 434 138 412 q 154 391 177 391 l 434 391 q 486 391 524 341 q 562 291 562 220 l 562 171 q 562 100 524 50 q 486 0 434 0 l 49 0 l 49 98 l 434 98 q 456 98 472 119 q 488 141 488 171 l 488 220 q 488 250 472 271 q 456 293 434 293 z"},"}":{"x_min":0,"x_max":427,"ha":427,"o":"m 233 341 q 195 393 195 464 l 195 562 q 195 592 179 613 q 163 635 141 635 l 49 635 l 49 732 l 141 732 q 193 732 231 682 q 269 632 269 562 l 269 464 q 269 434 285 412 q 301 391 324 391 l 378 391 l 378 293 l 324 293 q 301 293 285 271 q 269 250 269 220 l 269 122 q 269 51 231 1 q 193 -49 141 -49 l 49 -49 l 49 49 l 141 49 q 163 49 179 70 q 195 92 195 122 l 195 220 q 195 291 233 341 z"},"Z":{"x_min":0,"x_max":610,"ha":610,"o":"m 417 586 l 49 586 l 49 684 l 562 684 l 193 98 l 562 98 l 562 0 l 49 0 z"},"x":{"x_min":0,"x_max":452,"ha":452,"o":"m 180 256 l 24 513 l 116 513 l 226 332 l 335 513 l 427 513 l 271 256 l 427 0 l 335 0 l 226 181 l 116 0 l 24 0 z"},")":{"x_min":0,"x_max":391,"ha":391,"o":"m 214 49 q 236 49 252 70 q 269 92 269 122 l 269 562 q 269 592 252 613 q 236 635 214 635 l 49 635 l 49 732 l 214 732 q 267 732 304 682 q 342 632 342 562 l 342 122 q 342 51 304 1 q 267 -49 214 -49 l 49 -49 l 49 49 z"},"&":{"x_min":0,"x_max":573,"ha":573,"o":"m 287 98 q 310 98 326 119 q 342 141 342 171 l 342 269 q 342 299 326 320 q 310 342 287 342 l 177 342 q 154 342 138 320 q 122 299 122 269 l 122 171 q 122 141 138 119 q 154 98 177 98 z m 287 439 q 310 439 326 461 q 342 482 342 513 q 342 543 326 564 q 310 586 287 586 l 177 586 q 154 586 138 564 q 122 543 122 513 q 122 482 138 461 q 154 439 177 439 z m 378 51 q 378 51 378 50 q 340 0 287 0 l 177 0 q 124 0 86 50 q 49 100 49 171 l 49 269 q 49 339 86 390 q 87 390 87 391 q 87 391 86 392 q 49 442 49 513 q 49 583 86 634 q 124 684 177 684 l 287 684 q 340 684 377 634 q 415 583 415 513 q 415 442 379 390 q 417 439 470 439 l 526 439 l 525 342 l 470 342 q 447 342 431 320 q 415 299 415 269 l 415 171 q 415 141 431 119 q 447 98 470 98 l 525 98 l 525 0 l 470 0 q 417 0 379 50 q 379 51 378 51 z"},"_":{"x_min":0,"x_max":537,"ha":537,"o":"m 488 -49 l 488 -146 l 49 -146 l 49 -49 z"},"v":{"x_min":0,"x_max":452,"ha":452,"o":"m 235 98 l 354 513 l 427 513 l 281 0 l 171 0 l 24 513 l 98 513 l 216 98 z"},"O":{"x_min":0,"x_max":610,"ha":610,"o":"m 122 171 q 122 141 138 119 q 154 98 177 98 l 434 98 q 456 98 472 119 q 488 141 488 171 l 488 513 q 488 543 472 564 q 456 586 434 586 l 177 586 q 154 586 138 564 q 122 543 122 513 z m 562 171 q 562 100 524 50 q 486 0 434 0 l 177 0 q 124 0 86 50 q 49 100 49 171 l 49 513 q 49 583 86 634 q 124 684 177 684 l 434 684 q 486 684 524 634 q 562 583 562 513 z"},"(":{"x_min":0,"x_max":391,"ha":391,"o":"m 342 49 l 342 -49 l 177 -49 q 124 -49 86 1 q 49 51 49 122 l 49 562 q 49 632 86 682 q 124 732 177 732 l 342 732 l 342 635 l 177 635 q 154 635 138 613 q 122 592 122 562 l 122 122 q 122 92 138 70 q 154 49 177 49 z"},"C":{"x_min":0,"x_max":610,"ha":610,"o":"m 562 98 l 562 0 l 177 0 q 124 0 86 50 q 49 100 49 171 l 49 513 q 49 583 86 634 q 124 684 177 684 l 562 684 l 562 586 l 177 586 q 154 586 138 564 q 122 543 122 513 l 122 171 q 122 141 138 119 q 154 98 177 98 z"},"W":{"x_min":0,"x_max":763,"ha":763,"o":"m 152 0 l 24 684 l 98 684 l 208 91 l 335 684 l 427 684 l 538 91 l 665 684 l 738 684 l 592 0 l 482 0 l 379 547 l 262 0 z"},"A":{"x_min":0,"x_max":610,"ha":610,"o":"m 294 586 l 208 293 l 402 293 l 316 586 z m 360 684 l 562 0 l 488 0 l 431 195 l 180 195 l 122 0 l 49 0 l 250 684 z"},"f":{"x_min":0,"x_max":354,"ha":354,"o":"m 122 415 l 122 0 l 49 0 l 49 513 q 49 583 86 634 q 124 684 177 684 l 306 684 l 305 586 l 177 586 q 154 586 138 564 q 122 543 122 513 l 305 513 l 305 415 z"},"Q":{"x_min":0,"x_max":610,"ha":610,"o":"m 269 0 l 177 0 q 124 0 86 50 q 49 100 49 171 l 49 513 q 49 583 86 634 q 124 684 177 684 l 434 684 q 486 684 524 634 q 562 583 562 513 l 562 171 q 562 100 524 50 q 486 0 434 0 l 342 0 l 342 -98 l 269 -98 z m 269 98 l 269 195 l 342 195 l 342 98 l 434 98 q 456 98 472 119 q 488 141 488 171 l 488 513 q 488 543 472 564 q 456 586 434 586 l 177 586 q 154 586 138 564 q 122 543 122 513 l 122 171 q 122 141 138 119 q 154 98 177 98 z"},"w":{"x_min":0,"x_max":562,"ha":562,"o":"m 116 0 l 24 513 l 98 513 l 171 103 l 244 513 l 317 513 l 391 103 l 464 513 l 537 513 l 445 0 l 335 0 l 281 308 l 226 0 z"},"-":{"x_min":0,"x_max":500,"ha":500,"o":"m 49 391 l 452 391 l 452 293 l 49 293 z"},"E":{"x_min":0,"x_max":610,"ha":610,"o":"m 122 293 l 122 171 q 122 141 138 119 q 154 98 177 98 l 562 98 l 562 0 l 177 0 q 124 0 86 50 q 49 100 49 171 l 49 513 q 49 583 86 634 q 124 684 177 684 l 562 684 l 562 586 l 177 586 q 154 586 138 564 q 122 543 122 513 l 122 391 l 488 391 l 488 293 z"},"s":{"x_min":0,"x_max":500,"ha":500,"o":"m 141 513 l 415 513 l 415 415 l 141 415 q 133 415 127 408 q 122 401 122 391 l 122 330 q 122 319 127 312 q 133 305 141 305 l 360 305 q 398 305 425 270 q 452 234 452 183 l 452 123 q 452 71 425 36 q 398 0 360 0 l 49 0 l 49 98 l 360 98 q 368 98 373 105 q 378 112 378 122 l 378 183 q 378 193 373 200 q 368 208 360 208 l 141 208 q 103 208 76 243 q 49 279 49 330 l 49 391 q 49 441 76 477 q 103 513 141 513 z"},">":{"x_min":0,"x_max":500,"ha":500,"o":"m 49 98 l 49 195 l 378 335 l 378 349 l 49 488 l 49 586 l 452 415 l 452 269 z"},"l":{"x_min":0,"x_max":171,"ha":171,"o":"m 49 684 l 122 684 l 122 0 l 49 0 z"},"8":{"x_min":0,"x_max":574,"ha":574,"o":"m 397 98 q 419 98 436 119 q 452 141 452 171 l 452 220 q 452 250 436 271 q 419 293 397 293 l 177 293 q 154 293 138 271 q 122 250 122 220 l 122 171 q 122 141 138 119 q 154 98 177 98 z m 397 391 q 419 391 436 412 q 452 434 452 464 l 452 513 q 452 543 436 564 q 419 586 397 586 l 177 586 q 154 586 138 564 q 122 543 122 513 l 122 464 q 122 434 138 412 q 154 391 177 391 z m 397 684 q 450 684 487 634 q 525 583 525 513 l 525 464 q 525 393 488 343 q 487 342 486 342 q 487 341 488 341 q 525 291 525 220 l 525 171 q 525 100 487 50 q 450 0 397 0 l 177 0 q 124 0 86 50 q 49 100 49 171 l 49 220 q 49 291 86 341 q 87 341 87 342 q 87 342 86 343 q 49 393 49 464 l 49 513 q 49 583 86 634 q 124 684 177 684 z"},"\\":{"x_min":0,"x_max":372,"ha":372,"o":"m 122 684 l 324 0 l 250 0 l 49 684 z"},"e":{"x_min":0,"x_max":500,"ha":500,"o":"m 122 195 l 122 171 q 122 141 138 119 q 154 98 177 98 l 415 98 l 415 0 l 177 0 q 124 0 86 50 q 49 100 49 171 l 49 342 q 49 413 86 463 q 124 513 177 513 l 324 513 q 376 513 414 463 q 452 413 452 342 l 452 195 z m 378 293 l 378 342 q 378 372 362 394 q 346 415 324 415 l 177 415 q 154 415 138 394 q 122 372 122 342 l 122 293 z"},"b":{"x_min":0,"x_max":500,"ha":500,"o":"m 378 342 q 378 372 362 394 q 346 415 324 415 l 122 415 l 122 98 l 324 98 q 346 98 362 119 q 378 141 378 171 z m 49 684 l 122 684 l 122 513 l 324 513 q 376 513 414 463 q 452 413 452 342 l 452 171 q 452 100 414 50 q 376 0 324 0 l 49 0 z"},"%":{"x_min":0,"x_max":610,"ha":610,"o":"m 122 488 q 122 458 138 437 q 154 415 177 415 l 214 415 q 236 415 252 437 q 269 458 269 488 l 269 513 q 269 543 252 564 q 236 586 214 586 l 177 586 q 154 586 138 564 q 122 543 122 513 z m 342 171 q 342 141 358 119 q 374 98 397 98 l 434 98 q 456 98 472 119 q 488 141 488 171 l 488 195 q 488 226 472 247 q 456 269 434 269 l 397 269 q 374 269 358 247 q 342 226 342 195 z m 266 332 q 242 317 214 317 l 177 317 q 124 317 86 367 q 49 417 49 488 l 49 513 q 49 583 86 634 q 124 684 177 684 l 214 684 q 267 684 305 634 q 326 604 335 568 l 369 684 l 442 684 l 345 352 q 369 366 397 366 l 434 366 q 486 366 524 316 q 562 266 562 195 l 562 171 q 562 100 524 50 q 486 0 434 0 l 397 0 q 344 0 306 50 q 284 79 275 115 l 241 0 l 168 0 z"},"m":{"x_min":0,"x_max":720,"ha":720,"o":"m 324 342 q 324 372 308 394 q 292 415 269 415 l 177 415 q 154 415 138 394 q 122 372 122 342 l 122 0 l 49 0 l 49 342 q 49 413 86 463 q 124 513 177 513 l 269 513 q 322 513 359 463 q 360 462 360 461 q 360 462 361 463 q 398 513 452 513 l 543 513 q 596 513 634 463 q 671 413 671 342 l 671 0 l 598 0 l 598 342 q 598 372 582 394 q 566 415 543 415 l 452 415 q 429 415 413 394 q 397 372 397 342 l 397 0 l 324 0 z"},"#":{"x_min":0,"x_max":500,"ha":500,"o":"m 122 488 l 122 635 l 195 635 l 195 488 l 305 488 l 305 635 l 378 635 l 378 488 l 452 488 l 452 391 l 378 391 l 378 293 l 452 293 l 452 195 l 378 195 l 378 49 l 305 49 l 305 195 l 195 195 l 195 49 l 122 49 l 122 195 l 49 195 l 49 293 l 122 293 l 122 391 l 49 391 l 49 488 z m 195 391 l 195 293 l 305 293 l 305 391 z"},",":{"x_min":0,"x_max":171,"ha":171,"o":"m 85 0 l 49 0 l 49 98 l 122 98 l 122 -24 q 122 -44 111 -59 q 101 -73 85 -73 l 70 -73 l 49 -24 l 67 -24 q 85 -24 85 0 z"},"n":{"x_min":0,"x_max":500,"ha":500,"o":"m 122 0 l 49 0 l 49 342 q 49 413 86 463 q 124 513 177 513 l 324 513 q 376 513 414 463 q 452 413 452 342 l 452 0 l 378 0 l 378 342 q 378 372 362 394 q 346 415 324 415 l 177 415 q 154 415 138 394 q 122 372 122 342 z"},"h":{"x_min":0,"x_max":500,"ha":500,"o":"m 122 0 l 49 0 l 49 684 l 122 684 l 122 513 l 324 513 q 376 513 414 463 q 452 413 452 342 l 452 0 l 378 0 l 378 342 q 378 372 362 394 q 346 415 324 415 l 122 415 z"},"z":{"x_min":0,"x_max":500,"ha":500,"o":"m 200 98 l 452 98 l 452 0 l 49 0 l 301 415 l 49 415 l 49 513 l 452 513 z"},"B":{"x_min":0,"x_max":610,"ha":610,"o":"m 122 391 l 434 391 q 456 391 472 412 q 488 434 488 464 l 488 513 q 488 543 472 564 q 456 586 434 586 l 122 586 z m 49 684 l 434 684 q 486 684 524 634 q 562 583 562 513 l 562 464 q 562 393 524 343 q 523 342 523 342 q 523 341 524 341 q 562 291 562 220 l 562 171 q 562 100 524 50 q 486 0 434 0 l 49 0 z m 122 293 l 122 98 l 434 98 q 456 98 472 119 q 488 141 488 171 l 488 220 q 488 250 472 271 q 456 293 434 293 z"},"K":{"x_min":0,"x_max":586,"ha":586,"o":"m 49 684 l 122 684 l 122 249 l 470 684 l 562 684 l 316 376 l 562 0 l 479 0 l 271 320 l 122 134 l 122 0 l 49 0 z"},"R":{"x_min":0,"x_max":610,"ha":610,"o":"m 122 342 l 434 342 q 456 342 472 363 q 488 385 488 415 l 488 513 q 488 543 472 564 q 456 586 434 586 l 122 586 z m 122 0 l 49 0 l 49 684 l 434 684 q 486 684 524 634 q 562 583 562 513 l 562 415 q 562 344 524 294 q 523 293 523 293 q 523 292 524 292 q 562 242 562 171 l 562 0 l 488 0 l 488 171 q 488 201 472 223 q 456 244 434 244 l 122 244 z"},"T":{"x_min":0,"x_max":610,"ha":610,"o":"m 562 684 l 562 586 l 342 586 l 342 0 l 269 0 l 269 586 l 49 586 l 49 684 z"},"P":{"x_min":0,"x_max":610,"ha":610,"o":"m 122 342 l 434 342 q 456 342 472 363 q 488 385 488 415 l 488 513 q 488 543 472 564 q 456 586 434 586 l 122 586 z m 49 684 l 434 684 q 486 684 524 634 q 562 583 562 513 l 562 415 q 562 344 524 294 q 486 244 434 244 l 122 244 l 122 0 l 49 0 z"},"|":{"x_min":0,"x_max":171,"ha":171,"o":"m 49 732 l 122 732 l 122 -49 l 49 -49 z"},"t":{"x_min":0,"x_max":354,"ha":354,"o":"m 305 513 l 305 415 l 122 415 l 122 171 q 122 141 138 120 q 154 98 177 98 l 305 98 l 305 0 l 177 0 q 124 0 86 51 q 49 101 49 171 l 49 684 l 122 684 l 122 513 z"},"M":{"x_min":0,"x_max":647,"ha":647,"o":"m 269 0 l 122 497 l 122 0 l 49 0 l 49 684 l 141 684 l 313 98 l 334 98 l 507 684 l 598 684 l 598 0 l 525 0 l 525 497 l 378 0 z"},"g":{"x_min":0,"x_max":500,"ha":500,"o":"m 122 171 q 122 141 138 119 q 154 98 177 98 l 378 98 l 378 415 l 177 415 q 154 415 138 394 q 122 372 122 342 z m 378 0 l 177 0 q 124 0 86 50 q 49 100 49 171 l 49 342 q 49 413 86 463 q 124 513 177 513 l 452 513 l 452 -24 q 452 -95 414 -145 q 376 -195 324 -195 l 122 -195 l 122 -98 l 324 -98 q 346 -98 362 -76 q 378 -55 378 -24 z"},"j":{"x_min":0,"x_max":146,"ha":146,"o":"m 24 513 l 98 513 l 98 -24 q 98 -95 60 -145 q 22 -195 -30 -195 l -49 -195 l -49 -98 l -30 -98 q -8 -98 8 -76 q 24 -55 24 -24 z m 24 684 l 98 684 l 98 586 l 24 586 z"},"i":{"x_min":0,"x_max":171,"ha":171,"o":"m 49 513 l 122 513 l 122 0 l 49 0 z m 122 684 l 122 586 l 49 586 l 49 684 z"},"y":{"x_min":0,"x_max":500,"ha":500,"o":"m 378 513 l 452 513 l 452 -24 q 452 -95 414 -145 q 376 -195 324 -195 l 122 -195 l 122 -98 l 324 -98 q 346 -98 362 -76 q 378 -55 378 -24 l 378 0 l 177 0 q 124 0 86 50 q 49 100 49 171 l 49 513 l 122 513 l 122 171 q 122 141 138 119 q 154 98 177 98 l 378 98 z"},"@":{"x_min":0,"x_max":537,"ha":537,"o":"m 232 317 q 232 287 248 266 q 264 244 287 244 l 415 244 l 415 439 l 287 439 q 264 439 248 418 q 232 396 232 366 z m 415 586 l 177 586 q 154 586 138 564 q 122 543 122 513 l 122 171 q 122 141 138 119 q 154 98 177 98 l 452 98 l 452 0 l 177 0 q 124 0 86 50 q 49 100 49 171 l 49 513 q 49 583 86 634 q 124 684 177 684 l 488 684 l 488 146 l 287 146 q 234 146 196 197 q 159 247 159 317 l 159 366 q 159 437 196 487 q 234 537 287 537 l 415 537 z"},".":{"x_min":0,"x_max":171,"ha":171,"o":"m 49 98 l 122 98 l 122 0 l 49 0 z"},"p":{"x_min":0,"x_max":500,"ha":500,"o":"m 378 342 q 378 372 362 394 q 346 415 324 415 l 122 415 l 122 98 l 324 98 q 346 98 362 119 q 378 141 378 171 z m 49 513 l 324 513 q 376 513 414 463 q 452 413 452 342 l 452 171 q 452 100 414 50 q 376 0 324 0 l 122 0 l 122 -171 l 49 -171 z"},"X":{"x_min":0,"x_max":562,"ha":562,"o":"m 240 342 l 24 684 l 106 684 l 281 407 l 455 684 l 537 684 l 322 342 l 537 0 l 455 0 l 281 276 l 106 0 l 24 0 z"},"*":{"x_min":0,"x_max":413,"ha":413,"o":"m 244 604 l 335 644 l 357 551 l 266 512 l 323 408 l 263 351 l 207 454 l 150 351 l 91 408 l 147 512 l 56 551 l 79 644 l 170 604 l 170 732 l 244 732 z"},"Y":{"x_min":0,"x_max":562,"ha":562,"o":"m 244 335 l 240 342 l 24 684 l 106 684 l 281 407 l 455 684 l 537 684 l 322 342 l 317 334 l 317 0 l 244 0 z"},"c":{"x_min":0,"x_max":500,"ha":500,"o":"m 452 98 l 452 0 l 177 0 q 124 0 86 50 q 49 100 49 171 l 49 342 q 49 413 86 463 q 124 513 177 513 l 452 513 l 452 415 l 177 415 q 154 415 138 394 q 122 372 122 342 l 122 171 q 122 141 138 119 q 154 98 177 98 z"},"!":{"x_min":0,"x_max":171,"ha":171,"o":"m 122 146 l 49 146 l 49 684 l 122 684 z m 49 0 l 49 98 l 122 98 l 122 0 z"},"/":{"x_min":0,"x_max":372,"ha":372,"o":"m 49 0 l 250 684 l 324 684 l 122 0 z"},"[":{"x_min":0,"x_max":391,"ha":391,"o":"m 342 49 l 342 -49 l 49 -49 l 49 732 l 342 732 l 342 635 l 122 635 l 122 49 z"},"6":{"x_min":0,"x_max":574,"ha":574,"o":"m 122 342 l 122 171 q 122 141 138 119 q 154 98 177 98 l 397 98 q 419 98 436 119 q 452 141 452 171 l 452 269 q 452 299 436 320 q 419 342 397 342 z m 122 439 l 397 439 q 450 439 487 389 q 525 339 525 269 l 525 171 q 525 100 487 50 q 450 0 397 0 l 177 0 q 124 0 86 50 q 49 100 49 171 l 49 513 q 49 583 86 634 q 124 684 177 684 l 488 684 l 488 586 l 177 586 q 154 586 138 564 q 122 543 122 513 z"},"r":{"x_min":0,"x_max":354,"ha":354,"o":"m 49 0 l 49 342 q 49 413 86 463 q 124 513 177 513 l 306 513 l 305 415 l 177 415 q 154 415 138 394 q 122 372 122 342 l 122 0 z"},"2":{"x_min":0,"x_max":574,"ha":574,"o":"m 177 293 q 154 293 138 271 q 122 250 122 220 l 122 98 l 525 98 l 525 0 l 49 0 l 49 220 q 49 291 86 341 q 124 391 177 391 l 397 391 q 419 391 436 412 q 452 434 452 464 l 452 513 q 452 543 436 564 q 419 586 397 586 l 49 586 l 49 684 l 397 684 q 450 684 487 634 q 525 583 525 513 l 525 464 q 525 393 487 343 q 450 293 397 293 z"},"{":{"x_min":0,"x_max":427,"ha":427,"o":"m 232 220 l 232 122 q 232 92 248 70 q 264 49 287 49 l 378 49 l 378 -49 l 287 -49 q 234 -49 196 1 q 159 51 159 122 l 159 220 q 159 250 143 271 q 126 293 104 293 l 49 293 l 49 391 l 104 391 q 126 391 143 412 q 159 434 159 464 l 159 562 q 159 632 196 682 q 234 732 287 732 l 378 732 l 378 635 l 287 635 q 264 635 248 613 q 232 592 232 562 l 232 464 q 232 393 195 341 q 232 291 232 220 z"},"9":{"x_min":0,"x_max":574,"ha":574,"o":"m 452 342 l 452 513 q 452 543 436 564 q 419 586 397 586 l 177 586 q 154 586 138 564 q 122 543 122 513 l 122 415 q 122 385 138 363 q 154 342 177 342 z m 452 244 l 177 244 q 124 244 86 294 q 49 344 49 415 l 49 513 q 49 583 86 634 q 124 684 177 684 l 397 684 q 450 684 487 634 q 525 583 525 513 l 525 171 q 525 100 487 50 q 450 0 397 0 l 85 0 l 85 98 l 397 98 q 419 98 436 119 q 452 141 452 171 z"}," ":{"x_min":0,"x_max":391,"ha":391,"o":""},"I":{"x_min":0,"x_max":171,"ha":171,"o":"m 49 684 l 122 684 l 122 0 l 49 0 z"},"H":{"x_min":0,"x_max":610,"ha":610,"o":"m 49 684 l 122 684 l 122 391 l 488 391 l 488 684 l 562 684 l 562 0 l 488 0 l 488 293 l 122 293 l 122 0 l 49 0 z"},"4":{"x_min":0,"x_max":574,"ha":574,"o":"m 452 195 l 525 195 l 525 98 l 452 98 l 452 0 l 378 0 l 378 98 l 49 98 l 269 684 l 360 684 l 177 195 l 378 195 l 378 342 l 452 342 z"},"~":{"x_min":0,"x_max":537,"ha":537,"o":"m 141 977 l 214 977 q 252 977 279 941 q 305 905 305 854 q 305 844 311 837 q 316 830 324 830 l 397 830 q 404 830 410 837 q 415 844 415 854 l 415 903 l 488 903 l 488 854 q 488 804 462 768 q 435 732 397 732 l 324 732 q 286 732 259 768 q 232 804 232 854 q 232 865 227 872 q 221 879 214 879 l 141 879 q 133 879 127 872 q 122 865 122 854 l 122 806 l 49 806 l 49 854 q 49 905 76 941 q 103 977 141 977 z"},"D":{"x_min":0,"x_max":610,"ha":610,"o":"m 122 98 l 434 98 q 456 98 472 119 q 488 141 488 171 l 488 513 q 488 543 472 564 q 456 586 434 586 l 122 586 z m 562 171 q 562 100 524 50 q 486 0 434 0 l 49 0 l 49 684 l 434 684 q 486 684 524 634 q 562 583 562 513 z"},"^":{"x_min":0,"x_max":537,"ha":537,"o":"m 49 732 l 49 830 l 269 977 l 488 830 l 488 732 l 269 879 z"},"0":{"x_min":0,"x_max":574,"ha":574,"o":"m 122 171 q 122 141 138 119 q 154 98 177 98 l 397 98 q 419 98 436 119 q 452 141 452 171 l 452 513 q 452 543 436 564 q 419 586 397 586 l 177 586 q 154 586 138 564 q 122 543 122 513 z m 525 171 q 525 100 487 50 q 450 0 397 0 l 177 0 q 124 0 86 50 q 49 100 49 171 l 49 513 q 49 583 86 634 q 124 684 177 684 l 397 684 q 450 684 487 634 q 525 583 525 513 z"},"F":{"x_min":0,"x_max":610,"ha":610,"o":"m 122 293 l 122 0 l 49 0 l 49 513 q 49 583 86 634 q 124 684 177 684 l 562 684 l 562 586 l 177 586 q 154 586 138 564 q 122 543 122 513 l 122 391 l 488 391 l 488 293 z"},"`":{"x_min":0,"x_max":354,"ha":354,"o":"m 49 977 l 214 977 l 305 732 l 214 732 z"},"k":{"x_min":0,"x_max":476,"ha":476,"o":"m 49 684 l 122 684 l 122 248 l 141 269 l 360 513 l 452 513 l 232 269 l 452 0 l 342 0 l 182 213 l 122 146 l 122 0 l 49 0 z"},"u":{"x_min":0,"x_max":500,"ha":500,"o":"m 378 513 l 452 513 l 452 171 q 452 100 414 50 q 376 0 324 0 l 177 0 q 124 0 86 50 q 49 100 49 171 l 49 513 l 122 513 l 122 171 q 122 141 138 119 q 154 98 177 98 l 324 98 q 346 98 362 119 q 378 141 378 171 z"},"]":{"x_min":0,"x_max":391,"ha":391,"o":"m 269 49 l 269 635 l 49 635 l 49 732 l 342 732 l 342 -49 l 49 -49 l 49 49 z"},"U":{"x_min":0,"x_max":610,"ha":610,"o":"m 122 171 q 122 141 138 119 q 154 98 177 98 l 434 98 q 456 98 472 119 q 488 141 488 171 l 488 684 l 562 684 l 562 171 q 562 100 524 50 q 486 0 434 0 l 177 0 q 124 0 86 50 q 49 100 49 171 l 49 684 l 122 684 z"},"o":{"x_min":0,"x_max":500,"ha":500,"o":"m 122 171 q 122 141 138 119 q 154 98 177 98 l 324 98 q 346 98 362 119 q 378 141 378 171 l 378 342 q 378 372 362 394 q 346 415 324 415 l 177 415 q 154 415 138 394 q 122 372 122 342 z m 452 171 q 452 100 414 50 q 376 0 324 0 l 177 0 q 124 0 86 50 q 49 100 49 171 l 49 342 q 49 413 86 463 q 124 513 177 513 l 324 513 q 376 513 414 463 q 452 413 452 342 z"},"N":{"x_min":0,"x_max":610,"ha":610,"o":"m 122 567 l 122 0 l 49 0 l 49 684 l 131 684 l 488 116 l 488 684 l 562 684 l 562 0 l 479 0 z"},"+":{"x_min":0,"x_max":500,"ha":500,"o":"m 214 293 l 49 293 l 49 391 l 214 391 l 214 586 l 287 586 l 287 391 l 452 391 l 452 293 l 287 293 l 287 98 l 214 98 z"},"G":{"x_min":0,"x_max":610,"ha":610,"o":"m 562 391 l 562 171 q 562 100 524 50 q 486 0 434 0 l 177 0 q 124 0 86 50 q 49 100 49 171 l 49 513 q 49 583 86 634 q 124 684 177 684 l 562 684 l 562 586 l 177 586 q 154 586 138 564 q 122 543 122 513 l 122 171 q 122 141 138 119 q 154 98 177 98 l 434 98 q 456 98 472 119 q 488 141 488 171 l 488 293 l 305 293 l 305 391 z"},"q":{"x_min":0,"x_max":500,"ha":500,"o":"m 122 171 q 122 141 138 119 q 154 98 177 98 l 378 98 l 378 415 l 177 415 q 154 415 138 394 q 122 372 122 342 z m 452 -171 l 378 -171 l 378 0 l 177 0 q 124 0 86 50 q 49 100 49 171 l 49 342 q 49 413 86 463 q 124 513 177 513 l 452 513 z"},"d":{"x_min":0,"x_max":500,"ha":500,"o":"m 122 171 q 122 141 138 119 q 154 98 177 98 l 378 98 l 378 415 l 177 415 q 154 415 138 394 q 122 372 122 342 z m 452 0 l 177 0 q 124 0 86 50 q 49 100 49 171 l 49 342 q 49 413 86 463 q 124 513 177 513 l 378 513 l 378 684 l 452 684 z"},"1":{"x_min":0,"x_max":171,"ha":171,"o":"m 49 684 l 122 684 l 122 0 l 49 0 z"},"5":{"x_min":0,"x_max":574,"ha":574,"o":"m 49 342 l 49 684 l 488 684 l 488 586 l 122 586 l 122 439 l 397 439 q 450 439 487 389 q 525 339 525 269 l 525 171 q 525 100 487 50 q 450 0 397 0 l 49 0 l 49 98 l 397 98 q 419 98 436 119 q 452 141 452 171 l 452 269 q 452 299 436 320 q 419 342 397 342 z"}}}
